<svg width="1600" height="1000" viewBox="0 0 1600 1000" fill="none" xmlns="http://www.w3.org/2000/svg">
  <defs>
    <linearGradient id="bg" x1="210" y1="64" x2="1388" y2="932" gradientUnits="userSpaceOnUse">
      <stop stop-color="#0F172A"/>
      <stop offset="1" stop-color="#1F2937"/>
    </linearGradient>
    <linearGradient id="panel" x1="263" y1="182" x2="1319" y2="823" gradientUnits="userSpaceOnUse">
      <stop stop-color="rgba(255,255,255,0.12)"/>
      <stop offset="1" stop-color="rgba(148,163,184,0.08)"/>
    </linearGradient>
    <linearGradient id="signal" x1="456" y1="229" x2="1089" y2="706" gradientUnits="userSpaceOnUse">
      <stop stop-color="#38BDF8"/>
      <stop offset="0.5" stop-color="#22C55E"/>
      <stop offset="1" stop-color="#F59E0B"/>
    </linearGradient>
    <filter id="glow" x="449" y="194" width="714" height="576" filterUnits="userSpaceOnUse" color-interpolation-filters="sRGB">
      <feFlood flood-opacity="0" result="BackgroundImageFix"/>
      <feBlend mode="normal" in="SourceGraphic" in2="BackgroundImageFix" result="shape"/>
      <feGaussianBlur stdDeviation="18" result="effect1_foregroundBlur_0_1"/>
    </filter>
  </defs>

  <rect width="1600" height="1000" rx="40" fill="url(#bg)"/>
  <path d="M0 755C249 691 438 627 650 671C824 707 915 838 1143 842C1298 844 1437 776 1600 677V1000H0V755Z" fill="#0B1220" fill-opacity="0.72"/>
  <g opacity="0.12">
    <path d="M180 116H1420" stroke="#CBD5E1"/>
    <path d="M180 222H1420" stroke="#CBD5E1"/>
    <path d="M180 328H1420" stroke="#CBD5E1"/>
    <path d="M180 434H1420" stroke="#CBD5E1"/>
    <path d="M180 540H1420" stroke="#CBD5E1"/>
    <path d="M180 646H1420" stroke="#CBD5E1"/>
    <path d="M180 752H1420" stroke="#CBD5E1"/>
    <path d="M180 858H1420" stroke="#CBD5E1"/>
    <path d="M264 96V904" stroke="#CBD5E1"/>
    <path d="M428 96V904" stroke="#CBD5E1"/>
    <path d="M592 96V904" stroke="#CBD5E1"/>
    <path d="M756 96V904" stroke="#CBD5E1"/>
    <path d="M920 96V904" stroke="#CBD5E1"/>
    <path d="M1084 96V904" stroke="#CBD5E1"/>
    <path d="M1248 96V904" stroke="#CBD5E1"/>
  </g>

  <rect x="152" y="126" width="1296" height="748" rx="30" fill="url(#panel)" stroke="rgba(255,255,255,0.12)"/>

  <rect x="216" y="194" width="450" height="542" rx="24" fill="rgba(15,23,42,0.72)" stroke="rgba(148,163,184,0.2)"/>
  <text x="260" y="258" fill="#E2E8F0" font-family="Work Sans, Arial, sans-serif" font-size="26" letter-spacing="3.8">OBSERVABLE EVIDENCE</text>
  <text x="260" y="302" fill="#94A3B8" font-family="Work Sans, Arial, sans-serif" font-size="19">Cross-verifying weak signals against public data.</text>

  <path d="M260 585C325 540 353 507 410 507C470 507 491 548 555 548C610 548 643 512 718 414" stroke="url(#signal)" stroke-width="8" stroke-linecap="round"/>
  <circle cx="260" cy="585" r="10" fill="#38BDF8"/>
  <circle cx="410" cy="507" r="10" fill="#38BDF8"/>
  <circle cx="555" cy="548" r="10" fill="#22C55E"/>
  <circle cx="718" cy="414" r="10" fill="#F59E0B"/>

  <rect x="258" y="360" width="168" height="116" rx="18" fill="rgba(15,23,42,0.9)" stroke="rgba(56,189,248,0.35)"/>
  <text x="284" y="401" fill="#E2E8F0" font-family="Work Sans, Arial, sans-serif" font-size="20">Filings</text>
  <text x="284" y="434" fill="#94A3B8" font-family="Work Sans, Arial, sans-serif" font-size="15">Disclosures</text>
  <rect x="286" y="454" width="110" height="8" rx="4" fill="#38BDF8" fill-opacity="0.75"/>

  <rect x="452" y="306" width="172" height="116" rx="18" fill="rgba(15,23,42,0.9)" stroke="rgba(34,197,94,0.3)"/>
  <text x="478" y="347" fill="#E2E8F0" font-family="Work Sans, Arial, sans-serif" font-size="20">Reports</text>
  <text x="478" y="380" fill="#94A3B8" font-family="Work Sans, Arial, sans-serif" font-size="15">Industry framing</text>
  <rect x="506" y="400" width="88" height="8" rx="4" fill="#22C55E" fill-opacity="0.75"/>

  <rect x="332" y="620" width="210" height="74" rx="18" fill="rgba(15,23,42,0.86)" stroke="rgba(245,158,11,0.3)"/>
  <text x="366" y="665" fill="#F8FAFC" font-family="Work Sans, Arial, sans-serif" font-size="19">Real-world indicators</text>

  <rect x="748" y="194" width="448" height="542" rx="24" fill="rgba(15,23,42,0.72)" stroke="rgba(148,163,184,0.2)"/>
  <text x="792" y="258" fill="#E2E8F0" font-family="Work Sans, Arial, sans-serif" font-size="26" letter-spacing="3.8">SIGNAL MODEL</text>
  <text x="792" y="302" fill="#94A3B8" font-family="Work Sans, Arial, sans-serif" font-size="19">Testing claims, constraints, and trendlines.</text>

  <g filter="url(#glow)">
    <circle cx="972" cy="470" r="68" fill="url(#signal)"/>
  </g>
  <circle cx="972" cy="470" r="54" fill="#0F172A" stroke="rgba(255,255,255,0.2)"/>
  <text x="935" y="463" fill="#E2E8F0" font-family="Libre Baskerville, Georgia, serif" font-size="22">Signal</text>
  <text x="918" y="493" fill="#94A3B8" font-family="Work Sans, Arial, sans-serif" font-size="14" letter-spacing="2.8">VERIFIED</text>

  <path d="M792 360H902" stroke="#38BDF8" stroke-width="4" stroke-linecap="round"/>
  <path d="M1040 360H1150" stroke="#22C55E" stroke-width="4" stroke-linecap="round"/>
  <path d="M840 620H930" stroke="#F59E0B" stroke-width="4" stroke-linecap="round"/>
  <path d="M1022 620H1130" stroke="#38BDF8" stroke-width="4" stroke-linecap="round"/>
  <path d="M846 368L926 442" stroke="rgba(56,189,248,0.55)" stroke-width="3"/>
  <path d="M1096 368L1018 442" stroke="rgba(34,197,94,0.55)" stroke-width="3"/>
  <path d="M886 620L944 530" stroke="rgba(245,158,11,0.55)" stroke-width="3"/>
  <path d="M1088 620L1002 530" stroke="rgba(56,189,248,0.55)" stroke-width="3"/>

  <rect x="792" y="760" width="496" height="78" rx="20" fill="rgba(15,23,42,0.76)" stroke="rgba(148,163,184,0.22)"/>
  <text x="830" y="808" fill="#E2E8F0" font-family="Libre Baskerville, Georgia, serif" font-size="28">Signal Intelligence</text>
  <text x="1086" y="808" fill="#94A3B8" font-family="Work Sans, Arial, sans-serif" font-size="14" letter-spacing="2.2">PUBLIC DATA • CROSS-VERIFICATION • SENSEMAKING</text>
</svg>
